<svg width="720" height="540" viewBox="0 0 720 540" fill="none" xmlns="http://www.w3.org/2000/svg">
  <defs>
    <linearGradient id="bg" x1="60" y1="40" x2="660" y2="500" gradientUnits="userSpaceOnUse">
      <stop stop-color="#F9F7E7"/>
      <stop offset="1" stop-color="#DDE8E2"/>
    </linearGradient>
    <linearGradient id="card" x1="120" y1="100" x2="610" y2="420" gradientUnits="userSpaceOnUse">
      <stop stop-color="#FFFFFF"/>
      <stop offset="1" stop-color="#EDF2EE"/>
    </linearGradient>
  </defs>

  <rect x="20" y="20" width="680" height="500" rx="40" fill="url(#bg)"/>
  <rect x="88" y="78" width="544" height="382" rx="28" fill="url(#card)" stroke="#0B3A2B" stroke-opacity="0.14" stroke-width="2"/>

  <circle cx="174" cy="164" r="46" fill="#0E3B2E"/>
  <circle cx="352" cy="140" r="36" fill="#FFD400"/>
  <circle cx="540" cy="180" r="44" fill="#113F32"/>

  <rect x="132" y="236" width="112" height="88" rx="16" fill="#FFFFFF" stroke="#0B3A2B" stroke-opacity="0.2"/>
  <path d="M154 301L174 276L196 294L222 260" stroke="#0E3B2E" stroke-width="7" stroke-linecap="round" stroke-linejoin="round"/>

  <rect x="304" y="220" width="124" height="102" rx="16" fill="#FFFFFF" stroke="#0B3A2B" stroke-opacity="0.2"/>
  <rect x="324" y="248" width="84" height="12" rx="6" fill="#DDE8E2"/>
  <rect x="324" y="270" width="68" height="12" rx="6" fill="#DDE8E2"/>
  <rect x="324" y="292" width="94" height="12" rx="6" fill="#FFD400"/>

  <rect x="478" y="236" width="110" height="88" rx="16" fill="#FFFFFF" stroke="#0B3A2B" stroke-opacity="0.2"/>
  <circle cx="513" cy="268" r="14" fill="#0E3B2E"/>
  <circle cx="548" cy="268" r="14" fill="#0E3B2E" fill-opacity="0.4"/>
  <path d="M502 296H559" stroke="#0E3B2E" stroke-width="7" stroke-linecap="round"/>

  <rect x="146" y="356" width="420" height="62" rx="14" fill="#0E3B2E"/>
  <text x="356" y="394" text-anchor="middle" fill="#F5F5F3" font-size="21" font-family="Arial, sans-serif" font-weight="700">Freelancers + Clients, Better Outcomes</text>
</svg>
